#!OML:ASF X:\für Bonn\!DataBase\2005_08_10_Bjorn_Final\c3d\bjorn.ASF
:FULLY-SPECIFIED
:DEGREES
156
root 1.02592 19.2448 0.279989 -186.048 23.0502 181.377
lowerback -10.1958 3.38018 4.11371
upperback 6.64178 4.12125 -0.109977
thorax 13.3581 2.39434 -1.51427
lowerneck -4.76541 4.58178 8.12388
upperneck 7.81741 6.13422 -6.26931
head 3.54872 3.05176 -2.9284
rclavicle 6.83322e-015 -7.85199e-015
rhumerus -295.275 23.0455 276.828
rradius 69.2248
rwrist 26.5273
rhand -52.6386 63.7446
rfingers 7.12502
rthumb -25.1195 35.377
lclavicle 6.83322e-015 -7.85199e-015
lhumerus 48.4899 -27.3129 87.2484
lradius 95.323
lwrist 24.0197
lhand -47.2893 -24.2516
lfingers 7.12502
lthumb -19.9853 4.74067
rfemur 10.8767 3.05534 6.88828
rtibia 28.4197
rfoot 6.27974 24.4164
rtoes -12.0867
lfemur -13.1691 3.59231 -10.9172
ltibia 38.5627
lfoot -3.12854 -9.27623
ltoes -22.2309
157
root 0.994526 19.3675 0.269686 -185.191 23.2363 181.665
lowerback -9.93986 3.4927 4.28789
upperback 6.2071 4.24718 -0.246339
thorax 12.732 2.45415 -1.76885
lowerneck -4.78201 4.52932 8.12049
upperneck 8.00711 6.03378 -5.84306
head 3.58876 3.02072 -2.80137
rclavicle 7.20719e-014 -1.53064e-014
rhumerus -293.373 22.4821 276.192
rradius 65.2399
rwrist 27.0418
rhand -52.4506 63.6262
rfingers 7.12502
rthumb -24.9393 35.2335
lclavicle 7.20719e-014 -1.53064e-014
lhumerus 49.5589 -26.3494 87.8673
lradius 92.7066
lwrist 25.8842
lhand -47.5982 -22.4189
lfingers 7.12502
lthumb -20.2823 6.54213
rfemur 9.59753 2.56778 6.94442
rtibia 28.654
rfoot 8.01613 23.8446
rtoes -12.5717
lfemur -13.327 3.60741 -10.7131
ltibia 37.2484
lfoot -1.53764 -9.11616
ltoes -21.8605
158
root 0.964903 19.4854 0.261504 -184.352 23.4242 181.986
lowerback -9.6718 3.60472 4.4895
upperback 5.76113 4.37324 -0.394261
thorax 12.0972 2.51514 -2.05198
lowerneck -4.70028 4.4657 8.17778
upperneck 8.17316 5.92416 -5.43826
head 3.60778 2.98922 -2.69344
rclavicle 4.99446e-014 1.31198e-014
rhumerus -291.295 21.8647 275.393
rradius 60.626
rwrist 27.8488
rhand -52.3293 63.0376
rfingers 7.12502
rthumb -24.8231 34.6288
lclavicle 4.99446e-014 1.31198e-014
lhumerus 50.6071 -25.3801 88.5698
lradius 89.8373
lwrist 27.82
lhand -47.8184 -20.1894
lfingers 7.12502
lthumb -20.4939 8.74899
rfemur 8.34855 2.09474 7.06885
rtibia 28.9036
rfoot 9.58691 23.2064
rtoes -13.0356
lfemur -13.508 3.62875 -10.4607
ltibia 36.0086
lfoot 0.191191 -8.89042
ltoes -21.3773
159
root 0.936944 19.5973 0.255527 -183.578 23.6246 182.263
lowerback -9.37198 3.7049 4.62201
upperback 5.33028 4.49902 -0.537401
thorax 11.4614 2.56974 -2.29242
lowerneck -4.57668 4.40405 8.20992
upperneck 8.28684 5.82294 -5.05255
head 3.6049 2.96128 -2.58809
rclavicle -1.44367e-014 9.93923e-015
rhumerus -289.231 21.2776 274.512
rradius 55.8567
rwrist 28.818
rhand -52.109 61.8022
rfingers 7.12502
rthumb -24.612 33.3645
lclavicle -1.44367e-014 9.93923e-015
lhumerus 51.7061 -24.3802 89.377
lradius 86.6771
lwrist 29.6876
lhand -47.7663 -17.9118
lfingers 7.12502
lthumb -20.4438 11.0319
rfemur 7.16781 1.6887 7.1912
rtibia 29.135
rfoot 10.9494 22.5301
rtoes -13.766
lfemur -13.7067 3.62275 -10.2261
ltibia 34.8801
lfoot 1.99052 -8.53465
ltoes -20.2018
160
root 0.910025 19.7013 0.250224 -182.834 23.8019 182.525
lowerback -9.093 3.78828 4.72841
upperback 4.92731 4.60894 -0.684584
thorax 10.8732 2.61565 -2.52325
lowerneck -4.47795 4.34758 8.25524
upperneck 8.38858 5.72828 -4.69814
head 3.60468 2.93547 -2.49353
rclavicle -4.34593e-014 -1.98785e-015
rhumerus -287.314 20.7537 273.489
rradius 51.2989
rwrist 29.7466
rhand -51.5688 58.7503
rfingers 7.12502
rthumb -24.0941 30.2431
lclavicle -4.34593e-014 -1.98785e-015
lhumerus 52.8717 -23.3867 90.228
lradius 83.2434
lwrist 31.3207
lhand -47.3289 -15.4524
lfingers 7.12502
lthumb -20.0235 13.5359
rfemur 6.05739 1.27924 7.31518
rtibia 29.3464
rfoot 12.186 21.8294
rtoes -14.3267
lfemur -13.9633 3.66876 -9.99312
ltibia 33.8759
lfoot 3.63368 -8.19791
ltoes -19.0409
161
root 0.884327 19.8022 0.245447 -182.159 23.9299 182.753
lowerback -8.76956 3.8512 4.78662
upperback 4.52445 4.70381 -0.846895
thorax 10.2599 2.65091 -2.74904
lowerneck -4.34367 4.28861 8.35295
upperneck 8.53162 5.63558 -4.36045
head 3.61355 2.91409 -2.41263
rclavicle -3.27995e-015 -5.56597e-015
rhumerus -285.543 20.2797 272.412
rradius 47.0282
rwrist 30.3736
rhand -50.4306 53.5742
rfingers 7.12502
rthumb -23.0023 24.9267
lclavicle -3.27995e-015 -5.56597e-015
lhumerus 54.0882 -22.462 91.0801
lradius 79.5771
lwrist 32.8115
lhand -46.4665 -13.1572
lfingers 7.12502
lthumb -19.1943 15.9156
rfemur 5.08702 0.851561 7.42583
rtibia 29.5244
rfoot 13.2748 21.098
rtoes -14.8715
lfemur -14.2429 3.67485 -9.77116
ltibia 33.0026
lfoot 5.13402 -7.84866
ltoes -17.7406
162
root 0.860154 19.899 0.240736 -181.519 24.0613 182.949
lowerback -8.46806 3.9103 4.81309
upperback 4.14353 4.79963 -1.02166
thorax 9.68794 2.68583 -2.96775
lowerneck -4.23234 4.22417 8.46383
upperneck 8.69759 5.5356 -4.03312
head 3.63367 2.89006 -2.33659
rclavicle -1.11568e-014 7.55382e-015
rhumerus -283.719 19.8351 271.287
rradius 42.7542
rwrist 31.0154
rhand -48.9719 48.0051
rfingers 7.12502
rthumb -21.6021 19.19
lclavicle -1.11568e-014 7.55382e-015
lhumerus 55.3659 -21.6134 91.9331
lradius 75.7173
lwrist 34.1067
lhand -45.3456 -11.159
lfingers 7.12502
lthumb -18.1162 18.0173
rfemur 4.17828 0.421651 7.52413
rtibia 29.7063
rfoot 14.0746 20.5397
rtoes -16.0353
lfemur -14.5349 3.66649 -9.55554
ltibia 32.231
lfoot 6.63365 -7.40303
ltoes -16.004
163
root 0.837192 19.9928 0.235563 -180.823 24.1853 183.236
lowerback -8.23085 3.9609 4.89748
upperback 3.76968 4.87128 -1.16047
thorax 9.16604 2.71123 -3.1801
lowerneck -4.14317 4.17172 8.55524
upperneck 8.91141 5.45534 -3.7144
head 3.67315 2.87663 -2.25801
rclavicle -1.12612e-013 2.8625e-014
rhumerus -281.923 19.4338 270.093
rradius 38.5103
rwrist 32.13
rhand -47.5642 42.7433
rfingers 7.12502
rthumb -20.2496 13.7788
lclavicle -1.12612e-013 2.8625e-014
lhumerus 56.6705 -20.7658 92.8661
lradius 71.7166
lwrist 35.5203
lhand -44.2562 -9.32619
lfingers 7.12502
lthumb -17.0678 19.9441
rfemur 3.27212 0.0745796 7.7593
rtibia 29.9042
rfoot 14.692 19.9789
rtoes -17.252
lfemur -14.8778 3.64361 -9.23454
ltibia 31.5315
lfoot 8.06887 -6.90649
ltoes -14.3731
164
root 0.814681 20.0772 0.229549 -180.054 24.3021 183.547
lowerback -8.09386 4.0062 4.98248
upperback 3.37395 4.9296 -1.2811
thorax 8.67957 2.72807 -3.37008
lowerneck -4.07055 4.11063 8.69836
upperneck 9.20785 5.37094 -3.48241
head 3.74407 2.86231 -2.21324
rclavicle 3.73218e-014 7.95139e-015
rhumerus -280.207 19.0699 268.864
rradius 34.4393
rwrist 33.4293
rhand -45.9835 38.2297
rfingers 7.12502
rthumb -18.7299 9.11146
lclavicle 3.73218e-014 7.95139e-015
lhumerus 57.9477 -19.9311 93.9506
lradius 67.6016
lwrist 37.0037
lhand -43.3821 -7.22742
lfingers 7.12502
lthumb -16.2263 22.1135
rfemur 2.29561 -0.199416 8.04189
rtibia 30.1444
rfoot 15.149 19.4215
rtoes -18.4581
lfemur -15.2961 3.6363 -8.89425
ltibia 30.8592
lfoot 9.4511 -6.48079
ltoes -13.181
165
root 0.793481 20.1514 0.222658 -179.327 24.4068 183.814
lowerback -7.99997 4.05151 5.03886
upperback 3.02647 4.99427 -1.42925
thorax 8.27428 2.75003 -3.56741
lowerneck -4.1188 4.05413 8.90369
upperneck 9.59484 5.28301 -3.29221
head 3.86536 2.84836 -2.18802
rclavicle 5.85421e-014 -7.95139e-016
rhumerus -278.536 18.7262 267.461
rradius 30.593
rwrist 34.7733
rhand -43.8475 33.5173
rfingers 7.12502
rthumb -16.6744 4.21352
lclavicle 5.85421e-014 -7.95139e-016
lhumerus 59.3203 -19.1821 95.042
lradius 63.4634
lwrist 38.5238
lhand -42.6363 -5.22811
lfingers 7.12502
lthumb -15.5081 24.17
rfemur 1.36888 -0.284258 8.31268
rtibia 30.4012
rfoot 15.5981 18.6763
rtoes -19.1101
lfemur -15.6671 3.59712 -8.59345
ltibia 30.2001
lfoot 10.7558 -6.11143
ltoes -12.2931
